<svg version="1" xmlns="http://www.w3.org/2000/svg" width="341.333" height="341.333" viewBox="0 0 256.000000 256.000000"><path d="M124.5 10.7c-2.2 1.3-4.9 2.9-6 3.4-1.1.5-2.9 1.5-4 2.2-1.1.7-7.1 4.2-13.3 7.7-6.2 3.6-12.8 7.3-14.5 8.4-1.8 1-15.8 9.1-31.2 17.9-15.4 8.8-28.6 16.5-29.3 17.2-1.1 1-1.4 13-1.5 60.7l-.2 59.5 25 14.4c13.8 7.9 37.2 21.4 52.1 30l27.2 15.6 48.3-27.8c26.6-15.3 50-28.8 52-30l3.7-2.2V67.9l-7.2-4c-3.9-2.2-7.8-4.4-8.6-4.9-.8-.5-9.4-5.5-19-11s-18.2-10.4-19-10.9c-3.6-2.2-38-21.9-44-25.3l-6.6-3.6-3.9 2.5z"/></svg>